<svg height="512pt" viewBox="-23 0 512 512.001" width="512pt" xmlns="http://www.w3.org/2000/svg" fill="#4eb7af"><path d="M328.824 137.703c-52.738-52.738-138.375-52.742-191.117 0-52.742 52.742-52.746 138.375 0 191.117 52.738 52.743 138.375 52.746 191.117 0 52.74-52.738 52.746-138.37 0-191.117zM307.59 307.586c-41.004 41.004-107.645 41.008-148.65 0-40.983-40.98-40.983-107.664 0-148.645 41.005-41.002 107.642-41.006 148.65 0 40.98 40.982 40.98 107.665 0 148.646zm0 0"/><path d="M365.25 0l-78.348 45.492c-50.605-14.375-107.855-8.328-156.132 21.57L84.617 20.91 20.91 84.617 67.098 130.8c-29.055 47.122-36.227 104.005-21.52 155.95L0 365.246l101.277 101.28 78.352-45.495c65.21 18.525 139.124 2.802 191.663-49.737 1.488-1.488 2.937-3.004 4.37-4.53v32.91l-30.03 30.03V512h90.094v-82.297l-30.032-30.03v-74.724c24.543-46.016 28.582-98.696 15.336-145.32l45.497-78.353zm40.45 481.97h-30.032v-39.83l15.016-15.015L405.7 442.14zM63.382 84.616L84.617 63.38l21.637 21.64c-3.78 3.25-7.457 6.652-11.02 10.214-3.57 3.57-6.976 7.25-10.214 11.02zm42.797 344.336l-68.606-68.605 22.028-37.938c9.03 17.62 20.898 34.15 35.632 48.883 14.56 14.555 31.016 26.52 48.8 35.68zm243.88-78.894c-64.548 64.545-169.033 64.557-233.59 0-64.4-64.404-64.4-169.193 0-233.59 64.55-64.548 169.03-64.56 233.59 0 64.55 64.55 64.553 169.03 0 233.59zm21.233-254.826c-14.555-14.558-31.012-26.52-48.8-35.68l37.86-21.984 68.6 68.606-21.98 37.86c-9.16-17.79-21.12-34.247-35.68-48.802zm0 0"/><path d="M275.734 169.56l-63.707 63.702 63.707 63.707 21.235-21.236-42.47-42.472 42.47-42.47zm0 0"/></svg>