<svg xmlns="http://www.w3.org/2000/svg" width="29.1" height="29" viewBox="0 0 29.1 29"><title>minimize</title><path fill="#fff" d="M28 .2l-9.1 8.9V4.5c0-.6-.4-1-1-1s-1 .4-1 1v7c0 .6.4 1 1 1h7c.6 0 1-.5 1-1 0-.6-.5-1-1-1h-4.6l8.9-9.1M29.3 27.6l-8.9-9.1H25c.6 0 1-.4 1-1s-.4-1-1-1h-7.1c-.6 0-1 .4-1 1v7c0 .6.5 1 1 1s1-.5 1-1V20l9.1 8.9M1.8 28.9l9-8.9v4.6c0 .6.5 1 1 1s1-.5 1-1v-7c0-.5-.3-.9-.8-1H4.8c-.6 0-1 .5-1 1 0 .6.5 1 1 1h4.6L.5 27.7M.6 1.5l8.9 9.1H4.9c-.6 0-1 .5-1 1 0 .6.5 1 1 1h7c.6 0 1-.4 1-1v-7c0-.6-.4-1-1-1s-1 .4-1 1v4.6l-9-9"/></svg>